<?xml version="1.0" encoding="UTF-8" standalone="no"?>
<!DOCTYPE svg PUBLIC "-//W3C//DTD SVG 1.1//EN" "http://www.w3.org/Graphics/SVG/1.1/DTD/svg11.dtd">
<svg width="100%" height="100%" viewBox="0 0 200 31" version="1.1" xmlns="http://www.w3.org/2000/svg" xmlns:xlink="http://www.w3.org/1999/xlink" xml:space="preserve" xmlns:serif="http://www.serif.com/" style="fill-rule:evenodd;clip-rule:evenodd;stroke-linejoin:round;stroke-miterlimit:2;">
    <path d="M22.08,14.09C22.08,20.85 17.98,25.36 11.79,25.36C8.07,25.36 5.12,23.74 3.37,20.99L3.37,30.99L0,30.99L0,3.54L3.37,3.54L3.37,7.2C5.12,4.45 8.07,2.83 11.79,2.83C17.99,2.83 22.09,7.33 22.09,14.1L22.08,14.09ZM18.53,14.09C18.53,9.16 15.51,5.89 10.95,5.89C6.39,5.89 3.37,9.02 3.37,13.74L3.37,14.44C3.37,19.16 6.4,22.3 10.96,22.3C15.52,22.3 18.54,19.02 18.54,14.09L18.53,14.09ZM47.69,14.09C47.69,20.85 43.24,25.36 36.56,25.36C29.88,25.36 25.43,20.86 25.43,14.09C25.43,7.33 29.88,2.82 36.56,2.82C43.24,2.82 47.69,7.32 47.69,14.09ZM44.14,14.09C44.14,9.16 41.11,5.89 36.55,5.89C32,5.89 28.97,9.16 28.97,14.09C28.97,19.02 32,22.29 36.55,22.29C41.11,22.29 44.15,19.02 44.15,14.09L44.14,14.09ZM73.54,14.09C73.54,20.85 69.44,25.36 63.24,25.36C59.52,25.36 56.56,23.74 54.82,21L54.82,31L51.46,31L51.46,3.53L54.83,3.53L54.83,7.19C56.57,4.44 59.53,2.82 63.25,2.82C69.43,2.82 73.54,7.32 73.54,14.09ZM69.99,14.09C69.99,9.16 66.96,5.89 62.4,5.89C57.85,5.89 54.82,9.02 54.82,13.74L54.82,14.44C54.82,19.16 57.85,22.3 62.4,22.3C66.96,22.3 69.99,19.02 69.99,14.09ZM97.83,12.33L94.56,12.33C94.56,8.45 91.88,5.88 88.16,5.88C83.92,5.88 80.88,9.16 80.88,14.08C80.88,19.02 83.94,22.3 88.57,22.3C92.99,22.3 95.6,19.72 95.95,15.85L99.21,15.85C98.87,21.55 94.91,25.36 88.47,25.36C81.79,25.36 77.33,20.86 77.33,14.09C77.33,7.33 81.89,2.82 88.43,2.82C93.97,2.82 97.83,6.62 97.83,12.32L97.83,12.33ZM123.18,18.32C123.18,21.35 123.56,22.12 125.41,22.12L125.41,25.01C121.93,25.01 120.54,24.41 120.08,22.23C118.52,24.2 115.67,25.36 111.98,25.36C106.38,25.36 102.62,22.58 102.62,18.39C102.62,14.19 106.34,11.44 111.91,11.44C115.39,11.44 118.17,12.46 119.81,14.19L119.81,11.63C119.81,8.17 117.23,5.89 113.41,5.89C109.93,5.89 107.39,7.69 107.04,10.4L103.77,10.4C104.12,5.86 108.01,2.83 113.55,2.83C119.32,2.83 123.18,6.35 123.18,11.63L123.18,18.32ZM119.8,18.39C119.8,16.06 117.1,14.51 112.99,14.51C108.89,14.51 106.17,16.06 106.17,18.39C106.17,20.71 108.92,22.29 113.06,22.29C117.09,22.29 119.81,20.75 119.81,18.39L119.8,18.39ZM150,10.64L150,14.44L146.74,14.44L146.74,11.41C146.74,7.75 144.68,5.71 141.52,5.71C138.52,5.71 136.2,8 136.2,11.41L136.2,22.12L143.74,22.12L143.74,25.01L129.34,25.01L129.34,22.12L132.83,22.12L132.83,6.41L129.35,6.41L129.35,3.53L136.2,3.53L136.2,5.98C137.63,3.98 139.96,2.82 142.85,2.82C147.33,2.82 150.01,5.85 150.01,10.64L150,10.64ZM171.33,13.95L174.6,13.95L174.6,14.09C174.6,21.31 171.37,25.36 165.63,25.36C159.88,25.36 156.72,21.56 156.72,14.79L156.72,6.41L153.24,6.41L153.24,3.53L156.72,3.53L156.72,0L160.09,0L160.09,3.53L172.72,3.53L172.72,6.4L160.1,6.4L160.1,14.08C160.1,19.33 162.09,22.28 165.64,22.28C169.29,22.28 171.34,19.33 171.34,14.08L171.34,13.94L171.33,13.95ZM200,17.68C199.44,22.3 195.27,25.36 189.6,25.36C182.89,25.36 178.43,20.85 178.43,14.09C178.43,7.32 182.78,2.82 189.39,2.82C195.13,2.82 199.03,6.94 199.03,13.1L199.03,15.74L182.12,15.74C182.75,19.72 185.67,22.29 189.78,22.29C193.43,22.29 196.21,20.46 196.73,17.68L200,17.68ZM182.05,12.86L195.48,12.86C195.38,8.66 192.77,5.88 189.01,5.88C185.11,5.88 182.47,8.63 182.05,12.86Z" style="fill-rule:nonzero;"/>
</svg>
