<svg xmlns="http://www.w3.org/2000/svg" width="128" height="128" viewBox="0 0 128 128">
    <path fill="#FF5F3E" d="M128 64a64 64 0 0 1-64 64A64 64 0 0 1 0 64 64 64 0 0 1 64 0a64 64 0 0 1 64 64Z"/>
    <path fill="#FFF79C" d="M95.22 98.16c6.5-5.9 7.15-13.86 1.62-19.95-5.53-6.08-13.33-6.36-19.55-.7l-.92.85C70.15 84 69.68 91.8 75.2 97.88c5.53 6.09 13.51 6.2 20 .3v-.02Zm4.28 4.75c-8.91 8.1-19.83 8.02-27.34-.24-4.51-4.97-5.96-10.86-4.45-16.46L54.52 98.19l-4.08-4.5 36.21-32.91 4.1 4.5-4.83 4.39c5.72-.97 11.44 1.03 15.96 6 7.5 8.25 6.54 19.13-2.37 27.23M49.75 53.4c-3.95-7.85-11.44-10.62-18.78-6.93-7.35 3.69-9.72 11.13-5.94 18.63l.58 1.13c3.77 7.51 11.15 10.05 18.5 6.36 7.34-3.68 9.6-11.35 5.66-19.2h-.02Zm5.73-2.88c5.4 10.77 2.4 21.26-7.58 26.27-6 3-12.06 2.83-17.05-.14l7.99 15.92-5.44 2.73-21.98-43.72 5.44-2.73 2.93 5.83c.6-5.78 4.08-10.75 10.07-13.76 9.98-5.01 20.2-1.16 25.6 9.6m35.88-19.34c-3.31-8.13-10.57-11.47-18.18-8.36-7.6 3.1-10.45 10.57-7.13 18.7 3.31 8.13 10.58 11.46 18.18 8.36 7.61-3.1 10.46-10.57 7.13-18.7Zm5.93-2.42c4.55 11.13.15 21.61-11 26.17-11.14 4.55-21.61.15-26.16-11-4.55-11.14-.16-21.61 10.99-26.16 11.15-4.55 21.61-.16 26.17 10.99"/>
</svg>